<svg xmlns="http://www.w3.org/2000/svg" version="1.1" xmlns:xlink="http://www.w3.org/1999/xlink" xmlns:svgjs="http://svgjs.com/svgjs" width="1440" height="560" preserveAspectRatio="none" viewBox="0 0 1440 560"><g mask="url(&quot;#SvgjsMask1000&quot;)" fill="none"><rect width="1440" height="560" x="0" y="0" fill="#0e2a47"></rect><path d="M 0,429 C 57.6,352 172.8,68 288,44 C 403.2,20 460.8,309 576,309 C 691.2,309 748.8,37.2 864,44 C 979.2,50.8 1036.8,340.8 1152,343 C 1267.2,345.2 1382.4,112.6 1440,55L1440 560L0 560z" fill="#184a7e"></path><path d="M 0,92 C 96,185.2 288,569.6 480,558 C 672,546.4 768,50.2 960,34 C 1152,17.8 1344,388.4 1440,477L1440 560L0 560z" fill="#2264ab"></path></g><defs><mask id="SvgjsMask1000"><rect width="1440" height="560" fill="#ffffff"></rect></mask></defs></svg>